<?xml version="1.0" encoding="UTF-8" standalone="no"?>
<svg
   xmlns:dc="http://purl.org/dc/elements/1.1/"
   xmlns:cc="http://creativecommons.org/ns#"
   xmlns:rdf="http://www.w3.org/1999/02/22-rdf-syntax-ns#"
   xmlns:svg="http://www.w3.org/2000/svg"
   xmlns="http://www.w3.org/2000/svg"
   xmlns:sodipodi="http://sodipodi.sourceforge.net/DTD/sodipodi-0.dtd"
   xmlns:inkscape="http://www.inkscape.org/namespaces/inkscape"
   width="196.25"
   height="40"
   version="1.1"
   xml:space="preserve"
   style="fill-rule:evenodd;stroke-linejoin:round;stroke-miterlimit:1.41420996"
   id="svg2"
   inkscape:version="0.48.3.1 r9886"
   sodipodi:docname="logo-io-inkscape-plain.svg"><metadata
   id="metadata24"><rdf:RDF><cc:Work
       rdf:about=""><dc:format>image/svg+xml</dc:format><dc:type
         rdf:resource="http://purl.org/dc/dcmitype/StillImage" /><dc:title></dc:title></cc:Work></rdf:RDF></metadata><defs
   id="defs22">
        
        
    
            
            
            
            
        </defs><sodipodi:namedview
   pagecolor="#ffffff"
   bordercolor="#666666"
   borderopacity="1"
   objecttolerance="10"
   gridtolerance="10"
   guidetolerance="10"
   inkscape:pageopacity="0"
   inkscape:pageshadow="2"
   inkscape:window-width="1078"
   inkscape:window-height="1003"
   id="namedview20"
   showgrid="true"
   showguides="true"
   inkscape:guide-bbox="true"
   units="pt"
   showborder="true"
   borderlayer="false"
   inkscape:showpageshadow="false"
   inkscape:document-units="pt"
   inkscape:zoom="4"
   inkscape:cx="110.74393"
   inkscape:cy="59.914013"
   inkscape:window-x="1080"
   inkscape:window-y="509"
   inkscape:window-maximized="0"
   inkscape:current-layer="layer1"><inkscape:grid
     type="xygrid"
     id="grid3015"
     empspacing="5"
     visible="true"
     enabled="true"
     snapvisiblegridlinesonly="true"
     units="pt"
     spacingx="1pt"
     spacingy="1pt"
     dotted="false" /><sodipodi:guide
     orientation="0,1"
     position="0,1.25"
     id="guide3017" /><sodipodi:guide
     orientation="0,1"
     position="0,37.5"
     id="guide3019" /><sodipodi:guide
     orientation="0,1"
     position="0,38.75"
     id="guide3021" /><sodipodi:guide
     orientation="1,0"
     position="1.25,0"
     id="guide3023" /><sodipodi:guide
     orientation="0,1"
     position="0,2.5"
     id="guide3025" /><sodipodi:guide
     orientation="1,0"
     position="136.25,-1.25"
     id="guide3083" /><sodipodi:guide
     orientation="1,0"
     position="178.75,35.532116"
     id="guide3085" /><sodipodi:guide
     orientation="0,1"
     position="202.5,20"
     id="guide3087" /><sodipodi:guide
     orientation="1,0"
     position="196.25,0"
     id="guide3089" /><sodipodi:guide
     orientation="1,0"
     position="193.75,19.445437"
     id="guide3000" /></sodipodi:namedview>
    
<g
   inkscape:groupmode="layer"
   id="layer4"
   inkscape:label="conector"
   style="display:inline"><g
     style="fill-rule:evenodd;stroke-linejoin:round;stroke-miterlimit:1.41420996"
     id="g6">
            
        </g></g><g
   inkscape:groupmode="layer"
   id="layer3"
   inkscape:label="IO"
   style="display:inline">

</g><g
   inkscape:groupmode="layer"
   id="layer1"
   inkscape:label="TEKY"
   style="display:inline"><path
   id="path3046"
   style="font-size:48.87775803px;font-style:normal;font-variant:normal;font-weight:bold;font-stretch:normal;text-align:start;line-height:125%;letter-spacing:0px;word-spacing:0px;writing-mode:lr-tb;text-anchor:start;fill:#000000;fill-opacity:1;stroke:none;font-family:Arial;-inkscape-font-specification:Arial Bold"
   d="m 111.76027,37.5 0,-14.725379 -12.816094,-20.262313 8.281534,0 8.2338,13.842334 8.06674,-13.842334 8.13834,0 -12.86382,20.310045 0,14.677647 -7.0405,0 m -44.414803,0 0,-34.987692 7.064364,0 0,15.536826 14.271923,-15.536826 9.498705,0 L 85.006376,16.139847 98.896442,37.5 l -9.140713,0 -9.618036,-16.419872 -5.727862,5.847193 0,10.572679 -7.064364,0 m -32.744279,0 0,-34.987692 25.942443,0 0,5.918791 -18.87808,0 0,7.75648 17.565445,0 0,5.894925 -17.565445,0 0,9.522571 19.54633,0 0,5.894925 -26.610693,0 m -22.004538,0 0,-29.068901 -10.3817501,0 0,-5.918791 27.8039981,0 0,5.918791 -10.357884,0 0,29.068901 -7.064364,0 M 166.14668,19.982288 c -1e-5,3.961785 0.91486,6.96891 2.7446,9.021383 1.82972,2.03658 4.15269,3.054865 6.9689,3.05486 2.81618,5e-6 5.12323,-1.010325 6.92117,-3.030994 1.81379,-2.036563 2.7207,-5.083464 2.72073,-9.140713 -3e-5,-4.009482 -0.88307,-7.000696 -2.64913,-8.973651 -1.75021,-1.9729021 -4.08113,-2.9593663 -6.99277,-2.9593959 -2.91168,2.96e-5 -5.25851,1.0024045 -7.0405,3.0071279 -1.78201,1.988865 -2.67301,4.99599 -2.673,9.021383 M 146.52875,37.5 l 0,-34.987692 7.06437,0 0,34.987692 -7.06437,0 m 12.33877,-17.279051 c 0,-3.563983 0.53301,-6.555196 1.59903,-8.973651 0.79553,-1.7819736 1.87746,-3.3810002 3.24579,-4.7970847 1.38422,-1.4160224 2.89574,-2.4661294 4.53456,-3.1503243 2.17975,-0.9227871 4.69365,-1.3841978 7.54168,-1.3842333 5.15505,3.55e-5 9.27593,1.5990622 12.36264,4.7970846 3.10256,3.198084 4.65385,7.6451287 4.65389,13.3411457 -4e-5,5.648321 -1.53542,10.071499 -4.60616,13.269548 -3.0708,3.182146 -7.17576,4.773218 -12.3149,4.773218 -5.20283,0 -9.33961,-1.583116 -12.41037,-4.749352 -3.07078,-3.182139 -4.60616,-7.557584 -4.60616,-13.126351 M 136.25,0 l 42.5,0 c 0,0 16.28,1.24507 16.25,20 -0.029,18.7549 -16.25,20 -16.25,20 l -42.5,0 0,-10 -6.25,0 0,-20 6.25,0 z" />

</g></svg>