<svg width="68" height="68" viewBox="0 0 68 68" version="1.1" xmlns="http://www.w3.org/2000/svg"><title>preview-3</title><desc>Created with Sketch.</desc><g transform="translate(3 3)" stroke="none" stroke-width="1" fill="none" fill-rule="evenodd"><path d="M23.9 38.7c9.3 8.9 20.2 12.8 24.2 8.6 4.1-4.1-.1-14.7-9.4-23.6-9.3-8.9-20.2-12.8-24.2-8.6-4.1 4.2.1 14.7 9.4 23.6z" id="Shape" stroke="#23516E" stroke-width=".75"/><path d="M38.7 38.7c-9.3 8.9-20.2 12.8-24.2 8.6-4.1-4.1.1-14.7 9.4-23.6 9.3-8.9 20.2-12.8 24.2-8.6 4.2 4.2-.1 14.7-9.4 23.6z" stroke="#010101" stroke-width=".75"/><ellipse id="Oval" stroke="#010101" stroke-width=".75" cx="31.6" cy="31.2" rx="10.6" ry="31.2"/><ellipse id="Oval" stroke="#23516E" stroke-width=".75" cx="31.2" cy="31.6" rx="31.2" ry="10.6"/><circle id="Oval" fill="#010101" cx="25" cy="56" r="3"/><circle id="Oval" fill="#010101" cx="38" cy="7" r="3"/><circle fill="#23526E" cx="7" cy="38" r="3"/></g></svg>